<svg width="36" height="36" viewBox="0 0 36 36" fill="none" xmlns="http://www.w3.org/2000/svg">
<path d="M12.0164 18.4465C12.0164 19.7578 12.9656 20.8266 14.1187 20.8266C15.2895 20.8266 16.2211 19.7578 16.2211 18.4465C16.2422 17.1457 15.3 16.0664 14.1187 16.0664C12.948 16.0664 12.0164 17.1352 12.0164 18.4465Z" fill="white"/>
<path d="M19.793 18.4465C19.793 19.7578 20.7422 20.8266 21.8953 20.8266C23.0766 20.8266 23.9977 19.7578 23.9977 18.4465C24.0152 17.1457 23.0766 16.0664 21.8953 16.0664C20.7246 16.0664 19.793 17.1352 19.793 18.4465Z" fill="white"/>
<path fill-rule="evenodd" clip-rule="evenodd" d="M18 36C27.9422 36 36 27.9422 36 18C36 8.05781 27.9422 0 18 0C8.05781 0 0 8.05781 0 18C0 27.9422 8.05781 36 18 36ZM21.3469 8.55C23.0168 8.8418 24.6164 9.35156 26.1105 10.0406L26.1387 10.0687C28.7824 13.9922 30.0867 18.4184 29.598 23.5125L29.5875 23.5441L29.5699 23.5652C27.566 25.0488 25.6289 25.9488 23.7164 26.5465C23.6848 26.557 23.6531 26.5465 23.6355 26.5184C23.1926 25.8996 22.7918 25.2457 22.4402 24.5566C22.4191 24.518 22.4367 24.4687 22.4789 24.4512C22.8586 24.307 23.2277 24.1453 23.5898 23.966C23.8324 23.8465 24.0715 23.7164 24.307 23.5758C24.3527 23.5477 24.3562 23.4809 24.3141 23.4492L23.9484 23.1609C23.9273 23.1434 23.8957 23.1398 23.8711 23.1539C21.723 24.1559 19.459 24.5883 17.202 24.4512C15.4828 24.3492 13.7672 23.9168 12.1113 23.1539C12.0973 23.1434 12.0797 23.1434 12.0656 23.1504L12.0375 23.1645L11.6754 23.4492C11.6332 23.4809 11.6367 23.5477 11.6824 23.5758C12.266 23.9133 12.8707 24.2086 13.507 24.4547C13.5492 24.4687 13.5668 24.518 13.5492 24.5566C13.2047 25.2457 12.8039 25.8996 12.3539 26.5184C12.3328 26.5465 12.3012 26.557 12.2695 26.5465C10.3676 25.9488 8.42695 25.0488 6.42656 23.5652C6.40898 23.5512 6.39844 23.5336 6.39844 23.509C5.99062 19.1039 6.82031 14.6426 9.8543 10.0687L9.88594 10.0406C11.3766 9.35156 12.9762 8.8418 14.6496 8.55C14.6777 8.54648 14.7094 8.56055 14.7234 8.58867C14.9309 8.95781 15.1664 9.42891 15.3281 9.81562C17.0895 9.54492 18.8789 9.54492 20.6754 9.81562C20.8371 9.43945 21.0621 8.95781 21.2695 8.58867C21.2836 8.56055 21.3152 8.54648 21.3469 8.55Z" fill="white"/>
</svg>
