<svg width="36" height="36" viewBox="0 0 36 36" fill="none" xmlns="http://www.w3.org/2000/svg">
<path d="M25.0653 12.2356C25.0653 12.9508 24.4856 13.5306 23.7704 13.5306C23.0552 13.5306 22.4754 12.9508 22.4754 12.2356C22.4754 11.5204 23.0552 10.9406 23.7704 10.9406C24.4856 10.9406 25.0653 11.5204 25.0653 12.2356Z" fill="white"/>
<path fill-rule="evenodd" clip-rule="evenodd" d="M12.4559 18.0045C12.4559 14.9386 14.9429 12.4559 18.0045 12.4559C21.0704 12.4559 23.5532 14.9386 23.5532 18.0045C23.5532 21.0704 21.0704 23.5532 18.0045 23.5532C14.9386 23.5532 12.4559 21.0704 12.4559 18.0045ZM14.4026 18.0002C14.4026 19.9898 16.0149 21.6021 18.0045 21.6021C19.9941 21.6021 21.6064 19.9898 21.6064 18.0002C21.6064 16.0106 19.9941 14.3983 18.0045 14.3983C16.0149 14.3983 14.4026 16.0106 14.4026 18.0002Z" fill="white"/>
<path fill-rule="evenodd" clip-rule="evenodd" d="M18 36C27.9411 36 36 27.9411 36 18C36 8.05887 27.9411 0 18 0C8.05887 0 0 8.05887 0 18C0 27.9411 8.05887 36 18 36ZM17.9957 7.2C15.0643 7.2 14.6957 7.21286 13.5429 7.26429C12.3943 7.31571 11.61 7.5 10.9243 7.76571C10.2129 8.04 9.61286 8.41286 9.01286 9.01286C8.41286 9.61285 8.04429 10.2171 7.76571 10.9243C7.5 11.61 7.31571 12.3943 7.26429 13.5471C7.21286 14.6957 7.2 15.0643 7.2 17.9957C7.2 20.9271 7.21286 21.2957 7.26429 22.4486C7.31571 23.5971 7.5 24.3814 7.76571 25.0714C8.04 25.7828 8.41286 26.3828 9.01286 26.9828C9.61286 27.5828 10.2171 27.9514 10.9243 28.23C11.61 28.4957 12.3943 28.68 13.5471 28.7314C14.7 28.7828 15.0643 28.7957 18 28.7957C20.9357 28.7957 21.3 28.7828 22.4529 28.7314C23.6014 28.68 24.3857 28.4957 25.0757 28.23C25.7871 27.9557 26.3871 27.5828 26.9871 26.9828C27.5871 26.3828 27.9557 25.7786 28.2343 25.0714C28.5 24.3857 28.6843 23.6014 28.7357 22.4486C28.7871 21.2957 28.8 20.9314 28.8 17.9957C28.8 15.06 28.7871 14.6957 28.7357 13.5429C28.6843 12.3943 28.5 11.61 28.2343 10.92C27.96 10.2086 27.5871 9.60857 26.9871 9.00857C26.3871 8.40857 25.7829 8.04 25.0757 7.76143C24.39 7.49571 23.6057 7.31143 22.4529 7.26C21.2957 7.21286 20.9271 7.2 17.9957 7.2Z" fill="white"/>
</svg>
