<svg width="36" height="36" viewBox="0 0 36 36" fill="none" xmlns="http://www.w3.org/2000/svg">
<path fill-rule="evenodd" clip-rule="evenodd" d="M18 36C27.9422 36 36 27.9422 36 18C36 8.05781 27.9422 0 18 0C8.05781 0 0 8.05781 0 18C0 27.9422 8.05781 36 18 36ZM14.3508 15.1172L8.1457 17.8102C7.53398 18.0527 7.1332 18.2918 6.93984 18.5309C6.8625 18.6223 6.8168 18.7137 6.80625 18.8051C6.73945 19.3535 7.425 19.568 8.36367 19.8633L8.75391 19.9863C9.67148 20.2852 10.909 20.6332 11.5523 20.6473C12.1324 20.6613 12.7828 20.4187 13.5035 19.9266C18.4043 16.6184 20.9355 14.9449 21.0938 14.9098C21.1535 14.8957 21.2238 14.8781 21.2906 14.8816C21.3539 14.8816 21.4137 14.8992 21.4664 14.9449C21.5719 15.0398 21.5613 15.2156 21.5508 15.2648C21.4629 15.6445 16.8574 19.8316 16.5902 20.1059L16.1684 20.5277C15.3141 21.3504 14.6742 21.9656 16.2035 22.9746C16.9418 23.4598 17.5324 23.8605 18.1195 24.2613C18.7594 24.6973 19.3957 25.1297 20.2219 25.6711C20.4328 25.8082 20.6332 25.9523 20.8301 26.093C21.5754 26.6273 22.2469 27.102 23.073 27.0281C23.5547 26.9824 24.0504 26.5289 24.3035 25.1824C24.8977 21.9937 26.0719 15.0855 26.3426 12.2414C26.3672 11.9918 26.3355 11.6719 26.3109 11.5312C26.2863 11.3906 26.2371 11.1937 26.0543 11.0461C25.8398 10.8703 25.5059 10.8316 25.3582 10.8352C24.6797 10.8457 23.6426 11.2078 18.6434 13.2891C17.7082 13.6758 16.2773 14.284 14.3508 15.1172Z" fill="white"/>
</svg>
