<svg width="36" height="36" viewBox="0 0 36 36" fill="none" xmlns="http://www.w3.org/2000/svg">
<path fill-rule="evenodd" clip-rule="evenodd" d="M18 36C27.9422 36 36 27.9422 36 18C36 8.05781 27.9422 0 18 0C8.05781 0 0 8.05781 0 18C0 27.9422 8.05781 36 18 36ZM18.7523 6.975H22.6582C22.6582 9.7875 24.9609 12.0867 27.9 12.1852V15.9539C26.5887 15.9328 25.3266 15.6375 24.1875 15.1207C23.6707 14.8887 23.182 14.6109 22.725 14.2945V21.9937C22.725 25.8609 19.452 29.025 15.4125 29.025C11.373 29.025 8.1 25.8926 8.1 21.9937C8.1 18.1266 11.3062 15.0293 15.2789 14.9625V18.7348C13.4754 18.798 12.0059 20.2359 12.0059 21.9937C12.0059 23.7832 13.5105 25.2527 15.3773 25.2527C16.1191 25.2527 16.8047 25.0207 17.3602 24.6305C18.2039 24.0363 18.7523 23.073 18.7523 21.9937V6.975Z" fill="white"/>
</svg>
