<svg width="36" height="36" viewBox="0 0 36 36" fill="none" xmlns="http://www.w3.org/2000/svg">
<path d="M15.6691 21.5086L21.7582 18.0035L15.6691 14.4949V21.5086Z" fill="white"/>
<path fill-rule="evenodd" clip-rule="evenodd" d="M18 36C27.9422 36 36 27.9422 36 18C36 8.05781 27.9422 0 18 0C8.05781 0 0 8.05781 0 18C0 27.9422 8.05781 36 18 36ZM29.2184 12.375C28.9477 11.373 28.1566 10.582 27.1547 10.3148C25.3266 9.81211 18.0035 9.81211 18.0035 9.81211C18.0035 9.81211 10.677 9.81211 8.84883 10.2937C7.86445 10.5645 7.05586 11.373 6.78516 12.375C6.30352 14.2066 6.30352 18.0035 6.30352 18.0035C6.30352 18.0035 6.30352 18.9703 6.3668 20.1621C6.42656 21.3363 6.54609 22.732 6.78516 23.632C7.05586 24.634 7.84687 25.4215 8.84883 25.6922C10.698 26.1949 18.0035 26.1949 18.0035 26.1949C18.0035 26.1949 25.3266 26.1949 27.1547 25.7133C28.1566 25.4426 28.9477 24.6516 29.2184 23.6496C29.7 21.818 29.7 18.0211 29.7 18.0211C29.7 18.0211 29.7176 14.2066 29.2184 12.375Z" fill="white"/>
</svg>
